<?xml version="1.0" encoding="UTF-8" standalone="no"?>
<!-- Created with Inkscape (http://www.inkscape.org/) -->

<svg
   xmlns:dc="http://purl.org/dc/elements/1.1/"
   xmlns:cc="http://creativecommons.org/ns#"
   xmlns:rdf="http://www.w3.org/1999/02/22-rdf-syntax-ns#"
   xmlns:svg="http://www.w3.org/2000/svg"
   xmlns="http://www.w3.org/2000/svg"
   xmlns:sodipodi="http://sodipodi.sourceforge.net/DTD/sodipodi-0.dtd"
   xmlns:inkscape="http://www.inkscape.org/namespaces/inkscape"
   width="744.09448819"
   height="1052.3622047"
   id="svg4029"
   version="1.1"
   inkscape:version="0.48.4 r9939"
   sodipodi:docname="New document 14">
  <defs
     id="defs4031" />
  <sodipodi:namedview
     id="base"
     pagecolor="#ffffff"
     bordercolor="#666666"
     borderopacity="1.0"
     inkscape:pageopacity="0.0"
     inkscape:pageshadow="2"
     inkscape:zoom="1.4"
     inkscape:cx="349.80013"
     inkscape:cy="1004.4361"
     inkscape:document-units="px"
     inkscape:current-layer="layer1"
     showgrid="false"
     inkscape:window-width="1920"
     inkscape:window-height="1020"
     inkscape:window-x="-2"
     inkscape:window-y="-3"
     inkscape:window-maximized="1" />
  <metadata
     id="metadata4034">
    <rdf:RDF>
      <cc:Work
         rdf:about="">
        <dc:format>image/svg+xml</dc:format>
        <dc:type
           rdf:resource="http://purl.org/dc/dcmitype/StillImage" />
        <dc:title></dc:title>
      </cc:Work>
    </rdf:RDF>
  </metadata>
  <g
     inkscape:label="Layer 1"
     inkscape:groupmode="layer"
     id="layer1">
    <path
       transform="translate(-12.879442,-12.879451)"
       sodipodi:type="arc"
       style="fill:#ffffff;fill-opacity:1;stroke:#000000;stroke-width:2.5;stroke-miterlimit:4;stroke-opacity:1;stroke-dasharray:none"
       id="path4067-2-4-7"
       sodipodi:cx="190.66629"
       sodipodi:cy="148.5282"
       sodipodi:rx="7.323606"
       sodipodi:ry="7.323606"
       d="m 197.9899,148.5282 a 7.323606,7.323606 0 1 1 -14.64722,0 7.323606,7.323606 0 1 1 14.64722,0 z" />
    <path
       transform="translate(39.64849,-12.879451)"
       sodipodi:type="arc"
       style="fill:#ffffff;fill-opacity:1;stroke:#000000;stroke-width:2.5;stroke-miterlimit:4;stroke-opacity:1;stroke-dasharray:none"
       id="path4067-2-4"
       sodipodi:cx="190.66629"
       sodipodi:cy="148.5282"
       sodipodi:rx="7.323606"
       sodipodi:ry="7.323606"
       d="m 197.9899,148.5282 a 7.323606,7.323606 0 1 1 -14.64722,0 7.323606,7.323606 0 1 1 14.64722,0 z" />
    <path
       sodipodi:type="arc"
       style="fill:#ffffff;fill-opacity:1;stroke:#000000;stroke-width:2.5;stroke-miterlimit:4;stroke-opacity:1;stroke-dasharray:none"
       id="path4065"
       sodipodi:cx="199.00005"
       sodipodi:cy="144.74013"
       sodipodi:rx="52.022858"
       sodipodi:ry="28.284271"
       d="m 251.0229,144.74013 a 52.022858,28.284271 0 1 1 -104.04571,0 52.022858,28.284271 0 1 1 104.04571,0 z"
       transform="matrix(0.52970733,0,0,0.61714025,98.305269,40.050957)" />
    <path
       sodipodi:type="arc"
       style="fill:#ffffff;fill-opacity:1;stroke:#000000;stroke-width:2.5;stroke-miterlimit:4;stroke-opacity:1;stroke-dasharray:none"
       id="path4037"
       sodipodi:cx="205.31351"
       sodipodi:cy="100.54594"
       sodipodi:rx="25.506351"
       sodipodi:ry="22.475895"
       d="m 230.81986,100.54594 a 25.506351,22.475895 0 1 1 -51.0127,0 25.506351,22.475895 0 1 1 51.0127,0 z" />
    <path
       style="fill:none;stroke:#000000;stroke-width:1px;stroke-linecap:butt;stroke-linejoin:miter;stroke-opacity:1"
       d="m 191.92898,81.080205 c 0,0 -20.20305,-58.083771 -33.84011,-35.860415 -13.63706,22.223356 -13.63706,22.223356 -13.63706,22.223356 0,0 20.70813,-7.576144 22.72844,-4.040611 2.0203,3.535534 18.18274,26.263967 18.18274,26.263967"
       id="path4039"
       inkscape:connector-curvature="0"
       sodipodi:nodetypes="cscsc" />
    <path
       style="fill:none;stroke:#000000;stroke-width:1px;stroke-linecap:butt;stroke-linejoin:miter;stroke-opacity:1"
       d="m 219.70818,80.603321 c 0,0 20.20305,-58.083774 33.84011,-35.86042 13.63706,22.22336 13.63706,22.22336 13.63706,22.22336 0,0 -20.70813,-10.606606 -22.72844,-7.071066 -2.0203,3.53553 -18.18274,29.294416 -18.18274,29.294416"
       id="path4039-1"
       inkscape:connector-curvature="0"
       sodipodi:nodetypes="cscsc" />
    <path
       sodipodi:type="arc"
       style="fill:#ffffff;fill-opacity:1;stroke:#000000;stroke-width:2.5;stroke-miterlimit:4;stroke-opacity:1;stroke-dasharray:none"
       id="path4059"
       sodipodi:cx="206.07112"
       sodipodi:cy="115.69823"
       sodipodi:rx="6.0609155"
       sodipodi:ry="5.3033009"
       d="m 212.13204,115.69823 a 6.0609155,5.3033009 0 1 1 -12.12183,0 6.0609155,5.3033009 0 1 1 12.12183,0 z"
       transform="translate(-2,-2)" />
    <path
       style="fill:none;stroke:#000000;stroke-width:0.74418825px;stroke-linecap:butt;stroke-linejoin:miter;stroke-opacity:1"
       d="m 189.27569,81.47768 15.28693,11.367487 13.75824,-11.090231"
       id="path4061"
       inkscape:connector-curvature="0" />
    <path
       sodipodi:type="arc"
       style="fill:#ffffff;fill-opacity:1;stroke:#000000;stroke-width:2.5;stroke-miterlimit:4;stroke-opacity:1;stroke-dasharray:none"
       id="path4067"
       sodipodi:cx="190.66629"
       sodipodi:cy="148.5282"
       sodipodi:rx="7.323606"
       sodipodi:ry="7.323606"
       d="m 197.9899,148.5282 a 7.323606,7.323606 0 1 1 -14.64722,0 7.323606,7.323606 0 1 1 14.64722,0 z" />
    <path
       transform="translate(26.516507,0.25253256)"
       sodipodi:type="arc"
       style="fill:#ffffff;fill-opacity:1;stroke:#000000;stroke-width:2.5;stroke-miterlimit:4;stroke-opacity:1;stroke-dasharray:none"
       id="path4067-2"
       sodipodi:cx="190.66629"
       sodipodi:cy="148.5282"
       sodipodi:rx="7.323606"
       sodipodi:ry="7.323606"
       d="m 197.9899,148.5282 a 7.323606,7.323606 0 1 1 -14.64722,0 7.323606,7.323606 0 1 1 14.64722,0 z" />
    <path
       style="fill:none;stroke:#000000;stroke-width:1px;stroke-linecap:butt;stroke-linejoin:miter;stroke-opacity:1"
       d="m 189.4036,140.69951 10.10153,-7.57614"
       id="path4143"
       inkscape:connector-curvature="0" />
    <path
       style="fill:none;stroke:#000000;stroke-width:1px;stroke-linecap:butt;stroke-linejoin:miter;stroke-opacity:1"
       d="m 218.69803,139.68936 -8.08122,-7.57615"
       id="path4145"
       inkscape:connector-curvature="0" />
    <path
       style="fill:none;stroke:#000000;stroke-width:1px;stroke-linecap:butt;stroke-linejoin:miter;stroke-opacity:1"
       d="m 190.89286,91.469323 c 0.35714,0.892858 5.53571,10.178567 5.53571,10.178567 l -12.32143,-4.285709 z"
       id="path4147"
       inkscape:connector-curvature="0" />
    <path
       style="fill:none;stroke:#000000;stroke-width:1px;stroke-linecap:butt;stroke-linejoin:miter;stroke-opacity:1"
       d="m 215.26785,91.38004 c -0.35714,0.892858 -5.53571,10.17857 -5.53571,10.17857 l 12.32143,-4.285712 z"
       id="path4147-2"
       inkscape:connector-curvature="0" />
    <path
       style="fill:none;stroke:#000000;stroke-width:1px;stroke-linecap:butt;stroke-linejoin:miter;stroke-opacity:1"
       d="m 197.5,111.64789 -13.75,-5.89285"
       id="path4174"
       inkscape:connector-curvature="0" />
    <path
       style="fill:none;stroke:#000000;stroke-width:1px;stroke-linecap:butt;stroke-linejoin:miter;stroke-opacity:1"
       d="m 210.53571,112.18361 11.60715,-5.71429"
       id="path4176"
       inkscape:connector-curvature="0" />
    <path
       style="fill:none;stroke:#000000;stroke-width:1px;stroke-linecap:butt;stroke-linejoin:miter;stroke-opacity:1"
       d="m 210.17857,115.93361 8.92857,2.67857"
       id="path4178"
       inkscape:connector-curvature="0" />
    <path
       style="fill:none;stroke:#000000;stroke-width:1px;stroke-linecap:butt;stroke-linejoin:miter;stroke-opacity:1"
       d="m 198.03571,115.93361 -7.5,3.39286"
       id="path4180"
       inkscape:connector-curvature="0" />
    <path
       style="fill:none;stroke:#000000;stroke-width:1px;stroke-linecap:butt;stroke-linejoin:miter;stroke-opacity:1"
       d="m 189.89286,119.14789 1.42857,10.71429 5,-7.67857"
       id="path4184"
       inkscape:connector-curvature="0"
       sodipodi:nodetypes="ccc" />
    <path
       style="fill:none;stroke:#000000;stroke-width:1px;stroke-linecap:butt;stroke-linejoin:miter;stroke-opacity:1"
       d="m 219.10714,120.3979 -1.42857,10.71429 -5,-7.67857"
       id="path4184-0"
       inkscape:connector-curvature="0"
       sodipodi:nodetypes="ccc" />
  </g>
</svg>
