<?xml version="1.0" encoding="UTF-8" standalone="no"?>
<!-- Created with Inkscape (http://www.inkscape.org/) -->

<svg
   xmlns:dc="http://purl.org/dc/elements/1.1/"
   xmlns:cc="http://creativecommons.org/ns#"
   xmlns:rdf="http://www.w3.org/1999/02/22-rdf-syntax-ns#"
   xmlns:svg="http://www.w3.org/2000/svg"
   xmlns="http://www.w3.org/2000/svg"
   xmlns:sodipodi="http://sodipodi.sourceforge.net/DTD/sodipodi-0.dtd"
   xmlns:inkscape="http://www.inkscape.org/namespaces/inkscape"
   width="744.09448819"
   height="1052.3622047"
   id="svg5599"
   version="1.1"
   inkscape:version="0.48.4 r9939"
   sodipodi:docname="slime.svg"
   inkscape:export-filename="/home/kc/html/itc240/final/images/monsters/slime.png"
   inkscape:export-xdpi="90"
   inkscape:export-ydpi="90">
  <defs
     id="defs5601" />
  <sodipodi:namedview
     id="base"
     pagecolor="#ffffff"
     bordercolor="#666666"
     borderopacity="1.0"
     inkscape:pageopacity="0.0"
     inkscape:pageshadow="2"
     inkscape:zoom="0.7"
     inkscape:cx="-327.55794"
     inkscape:cy="840.43776"
     inkscape:document-units="px"
     inkscape:current-layer="layer1"
     showgrid="false"
     showguides="true"
     inkscape:window-width="1920"
     inkscape:window-height="1020"
     inkscape:window-x="-2"
     inkscape:window-y="-3"
     inkscape:window-maximized="1" />
  <metadata
     id="metadata5604">
    <rdf:RDF>
      <cc:Work
         rdf:about="">
        <dc:format>image/svg+xml</dc:format>
        <dc:type
           rdf:resource="http://purl.org/dc/dcmitype/StillImage" />
        <dc:title></dc:title>
      </cc:Work>
    </rdf:RDF>
  </metadata>
  <g
     inkscape:label="Layer 1"
     inkscape:groupmode="layer"
     id="layer1">
    <path
       style="fill:none;stroke:#000000;stroke-width:4.50955296px;stroke-linecap:butt;stroke-linejoin:miter;stroke-opacity:1"
       d="m 25.983143,253.18693 c 1.449385,-1.196 34.995876,1.35467 36.841853,0 4.427841,-3.2493 6.464436,-8.81594 9.210468,-13.51796 17.455578,-29.88888 2.744436,-6.26567 13.815692,-31.54183 2.704286,-6.17405 6.140309,-12.01595 9.210464,-18.02393 3.070154,-6.00797 5.67841,-12.26405 9.21046,-18.02392 1.11694,-1.82144 3.63437,-2.60612 4.60524,-4.50602 1.37301,-2.68685 -1.37302,-6.32508 0,-9.01194 1.94173,-3.7998 7.83745,-4.9817 9.21046,-9.01198 0.97087,-2.84981 -1.37301,-6.32509 0,-9.01195 1.94174,-3.79979 6.14031,-6.00797 9.21046,-9.01198 1.53508,-1.50196 3.07016,-3.00397 4.60524,-4.50597 1.53507,-1.50201 2.66349,-3.55602 4.60523,-4.50597 4.34185,-2.12414 9.93222,-1.65617 13.81569,-4.50597 2.74603,-2.01516 2.17806,-6.63711 4.60523,-9.01199 1.08547,-1.06209 3.07016,0 4.60524,0 1.09434,0 17.38875,-0.50495 18.42092,0 1.94174,0.94995 2.79891,3.32773 4.60524,4.50597 24.52311,20.79014 -0.45607,-2.47608 13.81569,4.50602 1.94174,0.9499 3.07015,3.00396 4.60523,4.50597 1.53508,1.502 3.07016,3.00396 4.60523,4.50597 7.49697,7.33539 8.60048,10.315 18.42093,13.51795 1.45631,0.47498 3.23222,-0.67173 4.60523,0 1.94174,0.94995 2.6635,3.55603 4.60524,4.50598 1.37301,0.67173 3.23221,-0.6717 4.60523,0 1.94173,0.94994 3.07015,3.00401 4.60523,4.50597 2.94937,2.8858 14.11129,15.21275 18.42093,18.02392 5.71208,3.72602 12.92887,4.9817 18.42092,9.01199 5.21023,3.82344 9.21047,9.01194 13.8157,13.51795 1.53508,1.50196 3.63436,2.60607 4.60523,4.50597 4.07614,7.97657 -6.84999,1.53974 4.60523,9.01194 2.85605,1.86301 6.35442,2.64301 9.21047,4.50602 1.80632,1.17825 2.66349,3.55602 4.60523,4.50597 1.37301,0.67169 3.14893,-0.47498 4.60523,0 3.25639,1.06204 5.95407,3.44392 9.21046,4.50597 1.4563,0.47497 3.14893,-0.47498 4.60524,0 33.35761,10.87959 -7.26065,-1.29909 13.81569,9.01198 2.94285,1.43969 14.71418,-1.20898 18.42093,0 3.25639,1.06205 5.95408,3.44388 9.21044,4.50597 4.29576,1.40106 18.76982,-1.38821 23.02619,0 2.05951,0.67169 3.91874,2.49086 4.60522,4.50597 0.5055,1.48381 0.5055,30.05808 0,31.54188 -0.68648,2.01512 -3.07017,3.00397 -4.60522,4.50598 -1.53508,1.502 -3.07017,3.004 -4.60526,4.50597 -1.53504,1.502 -2.66348,3.55606 -4.60522,4.50601 -2.53427,1.23981 -24.03105,-1.17428 -27.63138,0 -2.05953,0.67169 -2.6635,3.55602 -4.60524,4.50597 -1.37301,0.67169 -3.07015,0 -4.60523,0 -3.07015,3.00397 -5.59782,6.65545 -9.21046,9.01194 -2.55452,1.66634 -6.46444,-1.34338 -9.21046,0 -1.94174,0.94995 -2.6635,3.55607 -4.60524,4.50602 -1.37301,0.67169 -3.14892,-0.47498 -4.60523,0 -3.25639,1.06204 -5.95407,3.44387 -9.21046,4.50597 -2.59827,0.84744 -10.78956,0 -13.8157,0 -12.28061,0 -24.56123,0 -36.84185,0 -14.82402,0 7.86162,-1.0621 -9.21047,4.50597 -2.33407,0.76126 -28.47188,0 -32.23662,0 -7.67538,0 -15.35077,0 -23.02616,0 -1.53508,0 -3.07015,0 -4.60523,0 -1.53508,0 -3.32797,-0.83317 -4.60523,0 -3.07015,3.00401 -6.14031,6.00797 -9.21046,9.01198 0,1.50196 0.8515,3.25622 0,4.50597 -3.61264,5.30216 -9.21047,9.01194 -13.8157,13.51796 -7.07921,6.92661 -13.14895,14.80245 -23.02616,18.02392 -1.4563,0.47498 -3.07015,0 -4.60523,0 -4.60523,1.50201 -9.47384,2.38184 -13.8157,4.50597 -1.94173,0.94995 -2.66349,3.55602 -4.60523,4.50597 -1.37301,0.67174 -3.07015,0 -4.60523,0 -3.07015,0 -6.29786,0.94995 -9.21046,0 -2.05953,-0.67169 -3.07016,-3.00396 -4.60524,-4.50597 -1.53507,-1.502 -3.91872,-2.49085 -4.605227,-4.50597 -0.970868,-2.84985 0.970867,-6.16213 0,-9.01198 -0.686509,-2.01512 -3.40102,-2.7386 -4.605233,-4.50597 -1.904026,-2.79449 -3.070155,-6.00798 -4.60523,-9.01199 -3.070154,-3.00396 -6.802035,-5.47715 -9.210463,-9.01194 -0.851511,-1.24975 0.686504,-3.16254 0,-4.50597 -0.970869,-1.8999 -3.40102,-2.7386 -4.605234,-4.50601 -1.90403,-2.79449 -2.701203,-6.21745 -4.605229,-9.01194 -1.204214,-1.76738 -3.634365,-2.60612 -4.605234,-4.50597 -0.686509,-1.34343 0.686509,-3.16259 0,-4.50602 -1.941738,-3.79975 -7.268726,-5.21219 -9.210463,-9.01194 -2.17093,-4.24828 -1.912529,-9.56596 -4.605234,-13.51795 -0.851507,-1.24971 -3.070155,0 -4.60523,0 -4.605234,0 -9.210463,0 -13.815697,0 -1.535075,0 -3.918725,1.34342 -4.605229,0 -2.830545,-5.53907 -3.070155,-12.01596 -4.605234,-18.02393 z"
       id="path5607"
       inkscape:connector-curvature="0" />
    <path
       sodipodi:type="arc"
       style="fill:none;stroke:#000000;stroke-width:2;stroke-miterlimit:4;stroke-opacity:1;stroke-dasharray:none"
       id="path5609"
       sodipodi:cx="48.214287"
       sodipodi:cy="125.04076"
       sodipodi:rx="6.4285712"
       sodipodi:ry="5.1785712"
       d="m 54.642858,125.04076 a 6.4285712,5.1785712 0 1 1 -12.857142,0 6.4285712,5.1785712 0 1 1 12.857142,0 z"
       transform="matrix(4.5589469,0,0,4.4606942,-84.542421,-367.67159)" />
    <path
       sodipodi:type="arc"
       style="fill:none;stroke:#000000;stroke-width:2;stroke-miterlimit:4;stroke-opacity:1;stroke-dasharray:none"
       id="path5611"
       sodipodi:cx="66.428574"
       sodipodi:cy="124.1479"
       sodipodi:rx="5.7142859"
       sodipodi:ry="5.7142859"
       d="m 72.142859,124.1479 a 5.7142859,5.7142859 0 1 1 -11.428571,0 5.7142859,5.7142859 0 1 1 11.428571,0 z"
       transform="matrix(4.7960067,0,0,6.504802,-97.847673,-634.18812)" />
    <path
       style="fill:none;stroke:#000000;stroke-width:4.50955296px;stroke-linecap:butt;stroke-linejoin:miter;stroke-opacity:1"
       d="m 118.98199,240.27978 c 0,0 30.93572,30.26902 58.61504,30.26902 27.67932,0 56.98683,-23.89661 56.98683,-23.89661"
       id="path5613"
       inkscape:connector-curvature="0" />
  </g>
</svg>
