<?xml version="1.0" encoding="UTF-8" standalone="no"?>
<!-- Created with Inkscape (http://www.inkscape.org/) -->

<svg
   xmlns:dc="http://purl.org/dc/elements/1.1/"
   xmlns:cc="http://creativecommons.org/ns#"
   xmlns:rdf="http://www.w3.org/1999/02/22-rdf-syntax-ns#"
   xmlns:svg="http://www.w3.org/2000/svg"
   xmlns="http://www.w3.org/2000/svg"
   xmlns:sodipodi="http://sodipodi.sourceforge.net/DTD/sodipodi-0.dtd"
   xmlns:inkscape="http://www.inkscape.org/namespaces/inkscape"
   width="744.09448819"
   height="1052.3622047"
   id="svg5599"
   version="1.1"
   inkscape:version="0.48.4 r9939"
   sodipodi:docname="slime_dead.svg"
   inkscape:export-filename="/home/kc/html/itc240/final/images/monsters/slime.png"
   inkscape:export-xdpi="90"
   inkscape:export-ydpi="90">
  <defs
     id="defs5601" />
  <sodipodi:namedview
     id="base"
     pagecolor="#ffffff"
     bordercolor="#666666"
     borderopacity="1.0"
     inkscape:pageopacity="0.0"
     inkscape:pageshadow="2"
     inkscape:zoom="0.98994949"
     inkscape:cx="22.531169"
     inkscape:cy="979.49785"
     inkscape:document-units="px"
     inkscape:current-layer="layer1"
     showgrid="false"
     showguides="true"
     inkscape:window-width="1920"
     inkscape:window-height="1020"
     inkscape:window-x="-2"
     inkscape:window-y="-3"
     inkscape:window-maximized="1"
     inkscape:guide-bbox="true" />
  <metadata
     id="metadata5604">
    <rdf:RDF>
      <cc:Work
         rdf:about="">
        <dc:format>image/svg+xml</dc:format>
        <dc:type
           rdf:resource="http://purl.org/dc/dcmitype/StillImage" />
        <dc:title />
      </cc:Work>
    </rdf:RDF>
  </metadata>
  <g
     inkscape:label="Layer 1"
     inkscape:groupmode="layer"
     id="layer1">
    <path
       style="fill:none;stroke:#000000;stroke-width:1.23450232px;stroke-linecap:butt;stroke-linejoin:miter;stroke-opacity:1"
       d="m 24.133435,152.57143 c 1.101147,-0.11797 26.587677,0.13362 27.990133,0 3.363996,-0.32051 4.911275,-0.8696 6.997538,-1.33341 13.261657,-2.94824 2.08505,-0.61804 10.496299,-3.11129 2.054549,-0.60901 4.665024,-1.18525 6.997536,-1.77788 2.332511,-0.59263 4.314101,-1.20972 6.997531,-1.77788 0.848576,-0.17966 2.761166,-0.25706 3.498771,-0.44447 1.04313,-0.26504 -1.04313,-0.62391 0,-0.88894 1.475211,-0.37481 5.954402,-0.49139 6.997532,-0.88895 0.737605,-0.2811 -1.04313,-0.6239 0,-0.88893 1.47521,-0.37481 4.665023,-0.59263 6.997535,-0.88894 1.16626,-0.14816 2.33251,-0.29632 3.49877,-0.44448 1.16625,-0.14815 2.02355,-0.35076 3.49876,-0.44446 3.29867,-0.20953 7.54588,-0.16337 10.4963,-0.44447 2.08626,-0.19878 1.65476,-0.65468 3.49877,-0.88894 0.82467,-0.10477 2.33251,0 3.49877,0 0.83141,0 13.21089,-0.0498 13.99507,0 1.47521,0.0937 2.12643,0.32824 3.49877,0.44446 18.63112,2.05074 -0.3465,-0.24424 10.4963,0.44448 1.47521,0.0937 2.33251,0.2963 3.49876,0.44447 1.16626,0.14816 2.33251,0.29631 3.49877,0.44446 5.69573,0.72357 6.5341,1.01748 13.99507,1.33342 1.10641,0.0469 2.45564,-0.0662 3.49876,0 1.47522,0.0937 2.02356,0.35076 3.49877,0.44447 1.04313,0.0662 2.45564,-0.0662 3.49877,0 1.47521,0.0937 2.33251,0.29631 3.49877,0.44446 2.24074,0.28466 10.72087,1.50059 13.99506,1.77789 4.33969,0.36753 9.82255,0.49139 13.99507,0.88894 3.95841,0.37714 6.99754,0.88893 10.4963,1.33341 1.16626,0.14815 2.76117,0.25707 3.49877,0.44447 3.09679,0.78681 -5.2042,0.15188 3.49877,0.88894 2.16984,0.18377 4.82769,0.26071 6.99753,0.44447 1.37233,0.11623 2.02356,0.35077 3.49877,0.44447 1.04313,0.0662 2.39236,-0.0469 3.49876,0 2.47401,0.10476 4.52354,0.33971 6.99754,0.44447 1.10641,0.0469 2.39236,-0.0469 3.49877,0 25.34302,1.07317 -5.51618,-0.12814 10.4963,0.88894 2.23579,0.14202 11.17891,-0.11925 13.99507,0 2.474,0.10476 4.52353,0.33971 6.9975,0.44448 3.26367,0.13819 14.26015,-0.13694 17.49389,0 1.56468,0.0662 2.9772,0.24569 3.49874,0.44446 0.38406,0.14636 0.38406,2.96493 0,3.1113 -0.52154,0.19877 -2.33253,0.2963 -3.49874,0.44446 -1.16628,0.14816 -2.33256,0.29632 -3.49881,0.44447 -1.16624,0.14816 -2.02354,0.35077 -3.49877,0.44448 -1.92536,0.12229 -18.25727,-0.11583 -20.99258,0 -1.5647,0.0662 -2.02356,0.35076 -3.49877,0.44446 -1.04313,0.0662 -2.33251,0 -3.49876,0 -2.33251,0.29632 -4.25288,0.6565 -6.99754,0.88894 -1.94076,0.16437 -4.91127,-0.1325 -6.99753,0 -1.47521,0.0937 -2.02356,0.35078 -3.49877,0.44448 -1.04313,0.0662 -2.39236,-0.0469 -3.49876,0 -2.47401,0.10476 -4.52354,0.33971 -6.99754,0.44447 -1.974,0.0836 -8.19724,0 -10.4963,0 -9.33004,0 -18.66009,0 -27.99014,0 -11.26236,0 5.97277,-0.10476 -6.99753,0.44446 -1.77329,0.0751 -21.63116,0 -24.49137,0 -5.83128,0 -11.66256,0 -17.49384,0 -1.16625,0 -2.33251,0 -3.49876,0 -1.16626,0 -2.52839,-0.0822 -3.49877,0 -2.33251,0.29632 -4.66502,0.59263 -6.99753,0.88895 0,0.14815 0.64692,0.32119 0,0.44446 -2.74466,0.52302 -6.99754,0.88895 -10.49631,1.33342 -5.37834,0.68324 -9.98974,1.46011 -17.49383,1.77788 -1.10641,0.0469 -2.33252,0 -3.49877,0 -3.49877,0.14816 -7.19763,0.23494 -10.4963,0.44447 -1.475211,0.0937 -2.023557,0.35077 -3.498764,0.44447 -1.043134,0.0662 -2.332512,0 -3.498771,0 -2.332512,0 -4.78472,0.0937 -6.997532,0 -1.564698,-0.0662 -2.332512,-0.29631 -3.498771,-0.44447 -1.166252,-0.14816 -2.977203,-0.2457 -3.498764,-0.44447 -0.737605,-0.28111 0.737605,-0.60783 0,-0.88895 -0.521568,-0.19877 -2.583883,-0.27013 -3.498767,-0.44446 -1.446561,-0.27565 -2.332512,-0.59263 -3.498768,-0.88894 -2.332512,-0.29632 -5.167759,-0.54027 -6.997532,-0.88895 -0.646924,-0.12327 0.521562,-0.31195 0,-0.44446 -0.737605,-0.18741 -2.583883,-0.27014 -3.498771,-0.44448 -1.446563,-0.27564 -2.052203,-0.61328 -3.498764,-0.88893 -0.914888,-0.17433 -2.761162,-0.25707 -3.498767,-0.44447 -0.521568,-0.13252 0.521565,-0.31196 0,-0.44448 -1.475211,-0.3748 -5.522325,-0.51412 -6.997528,-0.88894 -1.649332,-0.41904 -1.453017,-0.94358 -3.498757,-1.33341 -0.646932,-0.12327 -2.332529,0 -3.498796,0 -3.498757,0 -6.997514,0 -10.496275,0 -1.166262,0 -2.977206,0.13252 -3.498791,0 -2.150448,-0.54637 -2.332495,-1.18525 -3.498757,-1.77788 z"
       id="path5607"
       inkscape:connector-curvature="0" />
    <path
       sodipodi:type="arc"
       style="fill:none;stroke:#000000;stroke-width:2;stroke-miterlimit:4;stroke-opacity:1;stroke-dasharray:none"
       id="path5609"
       sodipodi:cx="48.214287"
       sodipodi:cy="125.04076"
       sodipodi:rx="6.4285712"
       sodipodi:ry="5.1785712"
       d="m 54.642858,125.04076 a 6.4285712,5.1785712 0 1 1 -12.857142,0 6.4285712,5.1785712 0 1 1 12.857142,0 z"
       transform="matrix(3.3201416,0,0,0.73600227,-52.920088,52.667946)" />
    <path
       style="fill:none;stroke:#000000;stroke-width:1.23450232px;stroke-linecap:butt;stroke-linejoin:miter;stroke-opacity:1"
       d="m 141.79418,143.59821 54.42805,2.98575"
       id="path5634"
       inkscape:connector-curvature="0" />
    <path
       style="fill:none;stroke:#000000;stroke-width:1.23450232px;stroke-linecap:butt;stroke-linejoin:miter;stroke-opacity:1"
       d="m 185.08922,142.18392 -29.68803,5.02861"
       id="path5636"
       inkscape:connector-curvature="0" />
    <path
       style="fill:none;stroke:#000000;stroke-width:1.23450232px;stroke-linecap:butt;stroke-linejoin:miter;stroke-opacity:1"
       d="m 99.736148,151.92685 105.145082,-1.10002 -9.89601,4.08575 -3.711,0 -29.68802,-3.45716"
       id="path5638"
       inkscape:connector-curvature="0" />
  </g>
</svg>
