<?xml version="1.0" encoding="UTF-8" standalone="no"?>
<!-- Created with Inkscape (http://www.inkscape.org/) -->

<svg
   xmlns:dc="http://purl.org/dc/elements/1.1/"
   xmlns:cc="http://creativecommons.org/ns#"
   xmlns:rdf="http://www.w3.org/1999/02/22-rdf-syntax-ns#"
   xmlns:svg="http://www.w3.org/2000/svg"
   xmlns="http://www.w3.org/2000/svg"
   xmlns:sodipodi="http://sodipodi.sourceforge.net/DTD/sodipodi-0.dtd"
   xmlns:inkscape="http://www.inkscape.org/namespaces/inkscape"
   width="744.09448819"
   height="1052.3622047"
   id="svg2"
   version="1.1"
   inkscape:version="0.48.4 r9939"
   sodipodi:docname="dead.svg"
   inkscape:export-filename="/home/kc/html/itc240/final/images/dead.png"
   inkscape:export-xdpi="90"
   inkscape:export-ydpi="90">
  <defs
     id="defs4" />
  <sodipodi:namedview
     id="base"
     pagecolor="#ffffff"
     bordercolor="#666666"
     borderopacity="1.0"
     inkscape:pageopacity="0.0"
     inkscape:pageshadow="2"
     inkscape:zoom="1.4"
     inkscape:cx="367.29313"
     inkscape:cy="752.49933"
     inkscape:document-units="px"
     inkscape:current-layer="layer1"
     showgrid="false"
     showguides="true"
     inkscape:guide-bbox="true"
     inkscape:window-width="1920"
     inkscape:window-height="1020"
     inkscape:window-x="-2"
     inkscape:window-y="-3"
     inkscape:window-maximized="1" />
  <metadata
     id="metadata7">
    <rdf:RDF>
      <cc:Work
         rdf:about="">
        <dc:format>image/svg+xml</dc:format>
        <dc:type
           rdf:resource="http://purl.org/dc/dcmitype/StillImage" />
        <dc:title></dc:title>
      </cc:Work>
    </rdf:RDF>
  </metadata>
  <g
     inkscape:label="Layer 1"
     inkscape:groupmode="layer"
     id="layer1">
    <path
       style="fill:none;stroke:#000000;stroke-width:3;stroke-linecap:butt;stroke-linejoin:miter;stroke-opacity:1;stroke-miterlimit:4;stroke-dasharray:none"
       d="m 325.72147,350.21198 -1.42842,-142.68666 c 0,0 6.4279,-30.89093 74.99214,-30.15542 68.56423,0.73549 62.85054,21.32944 62.85054,21.32944 l 2.14264,150.77713 z"
       id="path2985"
       inkscape:connector-curvature="0" />
    <flowRoot
       xml:space="preserve"
       id="flowRoot3076"
       style="font-size:12px;font-style:normal;font-weight:normal;line-height:125%;letter-spacing:0px;word-spacing:0px;fill:#000000;fill-opacity:1;stroke:none;font-family:Sans"
       transform="matrix(1.7198031,0,0,1,-107.9706,98.857143)"><flowRegion
         id="flowRegion3078"><rect
           id="rect3080"
           width="109.28571"
           height="45"
           x="263.57144"
           y="135.93361" /></flowRegion><flowPara
         id="flowPara3082"
         style="font-size:36px">RIP</flowPara></flowRoot>    <path
       style="fill:none;stroke:#000000;stroke-width:3;stroke-linecap:butt;stroke-linejoin:miter;stroke-miterlimit:4;stroke-opacity:1;stroke-dasharray:none"
       d="m 346.42857,283.36218 92.85714,0.71428"
       id="path3116"
       inkscape:connector-curvature="0" />
    <path
       style="fill:none;stroke:#000000;stroke-width:3;stroke-linecap:butt;stroke-linejoin:miter;stroke-miterlimit:4;stroke-opacity:1;stroke-dasharray:none"
       d="m 346.42857,296.57647 92.85714,0.71428"
       id="path3116-7"
       inkscape:connector-curvature="0" />
    <path
       style="fill:none;stroke:#000000;stroke-width:3;stroke-linecap:butt;stroke-linejoin:miter;stroke-miterlimit:4;stroke-opacity:1;stroke-dasharray:none"
       d="m 345.71429,311.57646 92.85714,0.71428"
       id="path3116-8"
       inkscape:connector-curvature="0" />
    <path
       style="fill:none;stroke:#000000;stroke-width:3;stroke-linecap:butt;stroke-linejoin:miter;stroke-opacity:1;stroke-miterlimit:4;stroke-dasharray:none"
       d="m 456.71428,362.36218 -129.28571,0.71428 -93.57143,70.71429 143.57143,-2.14286 z"
       id="path3943"
       inkscape:connector-curvature="0" />
    <path
       style="fill:none;stroke:#000000;stroke-width:3;stroke-linecap:butt;stroke-linejoin:miter;stroke-opacity:1;stroke-miterlimit:4;stroke-dasharray:none"
       d="m 169.28571,83.790751 c 7.14285,2.14286 124.28571,129.999999 124.28571,129.999999 L 192.14285,191.64789 c 0,0 85.71429,121.42857 80.71429,111.42857 -5,-10 -128.57143,-138.57142 -120,-133.57142 8.57142,5 104.28571,19.28571 104.28571,19.28571 L 139.28571,83.076461 z"
       id="path3945"
       inkscape:connector-curvature="0" />
    <path
       style="fill:none;stroke:#000000;stroke-width:3;stroke-linecap:butt;stroke-linejoin:miter;stroke-opacity:1;stroke-miterlimit:4;stroke-dasharray:none"
       d="M 621.42857,87.069488 C 614.28572,89.212348 497.14286,217.06949 497.14286,217.06949 l 101.42857,-22.14286 c 0,0 -85.71429,121.42857 -80.71429,111.42857 5,-10 128.57143,-138.57142 120,-133.57142 -8.57142,5 -104.28571,19.28571 -104.28571,19.28571 L 651.42857,86.355198 z"
       id="path3945-9"
       inkscape:connector-curvature="0" />
    <path
       sodipodi:type="arc"
       style="fill:none;stroke:#000000;stroke-width:3;stroke-miterlimit:4;stroke-opacity:1;stroke-dasharray:none"
       id="path3965"
       sodipodi:cx="397.14285"
       sodipodi:cy="84.862183"
       sodipodi:rx="26.428572"
       sodipodi:ry="21.071428"
       d="m 423.57142,84.862183 a 26.428572,21.071428 0 1 1 -52.85714,0 26.428572,21.071428 0 1 1 52.85714,0 z"
       transform="translate(-2.8571429,128.57143)" />
    <path
       sodipodi:type="arc"
       style="fill:none;stroke:#000000;stroke-width:3;stroke-miterlimit:4;stroke-opacity:1;stroke-dasharray:none"
       id="path3967"
       sodipodi:cx="276.07144"
       sodipodi:cy="58.076466"
       sodipodi:rx="6.7857141"
       sodipodi:ry="6.4285712"
       d="m 282.85716,58.076466 a 6.7857141,6.4285712 0 1 1 -13.57143,0 6.7857141,6.4285712 0 1 1 13.57143,0 z"
       transform="translate(106.42857,147.85714)" />
    <path
       sodipodi:type="arc"
       style="fill:none;stroke:#000000;stroke-width:3;stroke-miterlimit:4;stroke-opacity:1;stroke-dasharray:none"
       id="path3967-1"
       sodipodi:cx="276.07144"
       sodipodi:cy="58.076466"
       sodipodi:rx="6.7857141"
       sodipodi:ry="6.4285712"
       d="m 282.85716,58.076466 a 6.7857141,6.4285712 0 1 1 -13.57143,0 6.7857141,6.4285712 0 1 1 13.57143,0 z"
       transform="translate(128.7857,147.14286)" />
    <path
       style="fill:none;stroke:#000000;stroke-width:2;stroke-linecap:butt;stroke-linejoin:miter;stroke-miterlimit:4;stroke-opacity:1;stroke-dasharray:none"
       d="m 367.61631,216.74301 52.27539,0.50507"
       id="path3998"
       inkscape:connector-curvature="0" />
    <path
       style="fill:none;stroke:#000000;stroke-width:2;stroke-linecap:butt;stroke-linejoin:miter;stroke-miterlimit:4;stroke-opacity:1;stroke-dasharray:none"
       d="m 374.56111,226.84453 38.63833,0.75762"
       id="path3998-3"
       inkscape:connector-curvature="0"
       sodipodi:nodetypes="cc" />
    <path
       style="fill:none;stroke:#000000;stroke-width:1px;stroke-linecap:butt;stroke-linejoin:miter;stroke-opacity:1"
       d="m 377.71783,216.49047 12.12183,17.93021"
       id="path4025"
       inkscape:connector-curvature="0" />
    <path
       style="fill:none;stroke:#000000;stroke-width:1px;stroke-linecap:butt;stroke-linejoin:miter;stroke-opacity:1"
       d="m 405.49703,216.49047 -8.83884,18.43528"
       id="path4027"
       inkscape:connector-curvature="0" />
    <path
       style="fill:none;stroke:#000000;stroke-width:1px;stroke-linecap:butt;stroke-linejoin:miter;stroke-opacity:1"
       d="m 392.87012,216.74301 0.25254,17.17259"
       id="path4029"
       inkscape:connector-curvature="0" />
    <path
       style="fill:none;stroke:#000000;stroke-width:3;stroke-linecap:butt;stroke-linejoin:miter;stroke-miterlimit:4;stroke-opacity:1;stroke-dasharray:none"
       d="M 282.85714,363.79075 324.28572,248.07646"
       id="path4050"
       inkscape:connector-curvature="0" />
    <path
       style="fill:none;stroke:#000000;stroke-width:1px;stroke-linecap:butt;stroke-linejoin:miter;stroke-opacity:1"
       d="m 471.42857,329.50504 9.28572,20 23.57142,-1.42857 -13.57142,-22.14286 z"
       id="path4052"
       inkscape:connector-curvature="0" />
    <path
       style="fill:none;stroke:#000000;stroke-width:1px;stroke-linecap:butt;stroke-linejoin:miter;stroke-opacity:1"
       d="m 482.14286,328.07647 c 0.0676,-6.57402 -1.62916,-15.84562 -10.55153,-13.77555 -7.73318,1.30868 -15.58815,8.72724 -13.71095,17.1349 2.28227,8.2067 -4.51561,14.40955 -10.74702,18.35434 -5.28318,4.56655 -12.25038,11.06593 -9.74181,18.82117 3.15507,7.00559 11.81269,3.9203 17.56928,3.02641 8.19734,-1.23852 10.11275,-9.89295 11.37608,-16.64474 1.19295,-6.57862 11.99741,-8.18183 6.87603,-15.71642 -3.3719,-4.08671 -9.60619,-15.54074 0.52552,-14.4659 3.63703,-0.21097 4.92078,4.58271 8.4044,3.26579 z"
       id="path4054"
       inkscape:connector-curvature="0" />
  </g>
</svg>
