<?xml version="1.0" encoding="UTF-8" standalone="no"?>
<!-- Created with Inkscape (http://www.inkscape.org/) -->

<svg
   xmlns:dc="http://purl.org/dc/elements/1.1/"
   xmlns:cc="http://creativecommons.org/ns#"
   xmlns:rdf="http://www.w3.org/1999/02/22-rdf-syntax-ns#"
   xmlns:svg="http://www.w3.org/2000/svg"
   xmlns="http://www.w3.org/2000/svg"
   xmlns:sodipodi="http://sodipodi.sourceforge.net/DTD/sodipodi-0.dtd"
   xmlns:inkscape="http://www.inkscape.org/namespaces/inkscape"
   width="744.09448819"
   height="1052.3622047"
   id="svg2"
   version="1.1"
   inkscape:version="0.48.4 r9939"
   sodipodi:docname="inn.svg"
   inkscape:export-filename="/home/kc/html/itc240/final/images/inn.png"
   inkscape:export-xdpi="90"
   inkscape:export-ydpi="90">
  <defs
     id="defs4" />
  <sodipodi:namedview
     id="base"
     pagecolor="#ffffff"
     bordercolor="#666666"
     borderopacity="1.0"
     inkscape:pageopacity="0.0"
     inkscape:pageshadow="2"
     inkscape:zoom="1.4"
     inkscape:cx="285.70747"
     inkscape:cy="853.39497"
     inkscape:document-units="px"
     inkscape:current-layer="layer1"
     showgrid="false"
     showguides="true"
     inkscape:guide-bbox="true"
     inkscape:window-width="1920"
     inkscape:window-height="1020"
     inkscape:window-x="-2"
     inkscape:window-y="-3"
     inkscape:window-maximized="1" />
  <metadata
     id="metadata7">
    <rdf:RDF>
      <cc:Work
         rdf:about="">
        <dc:format>image/svg+xml</dc:format>
        <dc:type
           rdf:resource="http://purl.org/dc/dcmitype/StillImage" />
        <dc:title></dc:title>
      </cc:Work>
    </rdf:RDF>
  </metadata>
  <g
     inkscape:label="Layer 1"
     inkscape:groupmode="layer"
     id="layer1">
    <path
       style="fill:none;stroke:#000000;stroke-width:1px;stroke-linecap:butt;stroke-linejoin:miter;stroke-opacity:1"
       d="m 329.28571,208.79075 -0.71428,36.42857"
       id="path4292"
       inkscape:connector-curvature="0" />
    <path
       style="fill:none;stroke:#000000;stroke-width:1px;stroke-linecap:butt;stroke-linejoin:miter;stroke-opacity:1"
       d="m 40.571429,275.21932 39.285714,-30 523.571427,0 34.28572,28.57143 3.57142,0 z"
       id="path4294"
       inkscape:connector-curvature="0" />
    <path
       style="fill:none;stroke:#000000;stroke-width:1px;stroke-linecap:butt;stroke-linejoin:miter;stroke-opacity:1"
       d="m 360.11939,258.88736 5.83136,-26.22076 -13.91259,-16.71073 -41.92133,2.02031 -10.6066,38.89087"
       id="path4296"
       inkscape:connector-curvature="0"
       sodipodi:nodetypes="ccccc" />
    <path
       style="fill:none;stroke:#000000;stroke-width:1px;stroke-linecap:butt;stroke-linejoin:miter;stroke-opacity:1"
       d="m 331.83511,259.39243 c 3.58686,-0.98173 7.41792,-0.2931 11.02208,-0.56024 2.12227,1.90621 5.26327,5.23616 7.00557,0.78848 1.67394,-2.94681 3.46715,-6.30802 6.67472,-7.72743 3.3376,-1.15809 5.47398,1.92403 7.77445,3.72826 2.04505,3.07341 6.39797,3.82287 8.92333,0.83542 0.8158,-1.85611 2.58956,-4.40269 4.16845,-1.43152 1.98135,2.99898 0.31657,6.68759 -3.11065,7.48666 -2.80157,0.70383 -5.20426,2.7836 -8.23176,2.44509 -3.17537,0.0519 -6.58822,0.42306 -9.14833,-1.85264 -1.69016,-1.5711 -5.91646,-3.32273 -4.90074,0.73846 1.37524,4.28208 -3.85943,3.0561 -6.42041,3.07087 -3.06191,0.67096 -5.73281,-1.48946 -8.46769,-2.27224 -1.98441,-1.50137 -4.50527,-2.67235 -5.28902,-5.24917 z"
       id="path4300"
       inkscape:connector-curvature="0" />
    <path
       style="fill:none;stroke:#000000;stroke-width:1px;stroke-linecap:butt;stroke-linejoin:miter;stroke-opacity:1"
       d="m 24.142857,217.93361 122.714283,1.42857"
       id="path4307"
       inkscape:connector-curvature="0"
       sodipodi:nodetypes="cc" />
    <path
       style="fill:none;stroke:#000000;stroke-width:1px;stroke-linecap:butt;stroke-linejoin:miter;stroke-opacity:1"
       d="m 32.71429,217.93361 0.71428,-29.28571 5,-0.71429 0,-14.28571 7.85714,0 0,13.57142 3.57143,0 0.71429,29.28572"
       id="path4309"
       inkscape:connector-curvature="0" />
    <path
       style="fill:none;stroke:#000000;stroke-width:1px;stroke-linecap:butt;stroke-linejoin:miter;stroke-opacity:1"
       d="m 70.07143,218.21932 -0.71428,-29.28571 -5,-0.71429 0,-14.28571 -7.85714,0 0,13.57142 -3.57143,0 -0.71429,29.28572"
       id="path4309-2"
       inkscape:connector-curvature="0" />
    <path
       style="fill:none;stroke:#000000;stroke-width:1px;stroke-linecap:butt;stroke-linejoin:miter;stroke-opacity:1"
       d="m 69.92857,218.36218 0.71428,-29.28571 5,-0.71429 0,-14.28571 7.85714,0 0,13.57142 3.57143,0 0.71429,29.28572"
       id="path4309-5"
       inkscape:connector-curvature="0" />
    <path
       style="fill:none;stroke:#000000;stroke-width:1px;stroke-linecap:butt;stroke-linejoin:miter;stroke-opacity:1"
       d="m 108.03572,218.43361 -0.71428,-29.28571 -5,-0.71429 0,-14.28571 -7.85714,0 0,13.57142 -3.57143,0 -0.71429,29.28572"
       id="path4309-7"
       inkscape:connector-curvature="0" />
    <path
       style="fill:none;stroke:#000000;stroke-width:1px;stroke-linecap:butt;stroke-linejoin:miter;stroke-opacity:1"
       d="m 109.67858,218.71932 0.71428,-29.28571 5,-0.71429 0,-14.28571 7.85714,0 0,13.57142 3.57143,0 0.71429,29.28572"
       id="path4309-2-6"
       inkscape:connector-curvature="0" />
    <path
       style="fill:none;stroke:#000000;stroke-width:1px;stroke-linecap:butt;stroke-linejoin:miter;stroke-opacity:1"
       d="m 145.25,218.86218 -0.71428,-29.28571 -5,-0.71429 0,-14.28571 -7.85714,0 0,13.57142 -3.57143,0 -0.71429,29.28572"
       id="path4309-5-5"
       inkscape:connector-curvature="0" />
    <path
       style="fill:none;stroke:#000000;stroke-width:1px;stroke-linecap:butt;stroke-linejoin:miter;stroke-opacity:1"
       d="m 24.214291,165.79075 122.714279,1.42857"
       id="path4307-8"
       inkscape:connector-curvature="0"
       sodipodi:nodetypes="cc" />
    <path
       style="fill:none;stroke:#000000;stroke-width:1px;stroke-linecap:butt;stroke-linejoin:miter;stroke-opacity:1"
       d="M 32.78572,165.79075 33.5,136.50504 l 5,-0.71429 0,-14.28571 7.85714,0 0,13.57142 3.57143,0 0.71429,29.28572"
       id="path4309-55"
       inkscape:connector-curvature="0" />
    <path
       style="fill:none;stroke:#000000;stroke-width:1px;stroke-linecap:butt;stroke-linejoin:miter;stroke-opacity:1"
       d="m 70.14286,166.07646 -0.71428,-29.28571 -5,-0.71429 0,-14.28571 -7.85714,0 0,13.57142 -3.57143,0 -0.71429,29.28572"
       id="path4309-2-9"
       inkscape:connector-curvature="0" />
    <path
       style="fill:none;stroke:#000000;stroke-width:1px;stroke-linecap:butt;stroke-linejoin:miter;stroke-opacity:1"
       d="m 70,166.21932 0.71428,-29.28571 5,-0.71429 0,-14.28571 7.85714,0 0,13.57142 3.57143,0 0.71429,29.28572"
       id="path4309-5-3"
       inkscape:connector-curvature="0" />
    <path
       style="fill:none;stroke:#000000;stroke-width:1px;stroke-linecap:butt;stroke-linejoin:miter;stroke-opacity:1"
       d="m 108.10715,166.29075 -0.71428,-29.28571 -5,-0.71429 0,-14.28571 -7.85714,0 0,13.57142 -3.57143,0 -0.71429,29.28572"
       id="path4309-7-4"
       inkscape:connector-curvature="0" />
    <path
       style="fill:none;stroke:#000000;stroke-width:1px;stroke-linecap:butt;stroke-linejoin:miter;stroke-opacity:1"
       d="m 109.75001,166.57646 0.71428,-29.28571 5,-0.71429 0,-14.28571 7.85714,0 0,13.57142 3.57143,0 0.71429,29.28572"
       id="path4309-2-6-5"
       inkscape:connector-curvature="0" />
    <path
       style="fill:none;stroke:#000000;stroke-width:1px;stroke-linecap:butt;stroke-linejoin:miter;stroke-opacity:1"
       d="m 145.32143,166.71932 -0.71428,-29.28571 -5,-0.71429 0,-14.28571 -7.85714,0 0,13.57142 -3.57143,0 -0.71429,29.28572"
       id="path4309-5-5-4"
       inkscape:connector-curvature="0" />
    <path
       style="fill:none;stroke:#000000;stroke-width:1px;stroke-linecap:butt;stroke-linejoin:miter;stroke-opacity:1"
       d="m 27.785714,112.93361 122.714276,1.42857"
       id="path4307-9"
       inkscape:connector-curvature="0"
       sodipodi:nodetypes="cc" />
    <path
       style="fill:none;stroke:#000000;stroke-width:1px;stroke-linecap:butt;stroke-linejoin:miter;stroke-opacity:1"
       d="m 36.35715,112.93361 0.71428,-29.28571 5,-0.71429 0,-14.285711 7.85714,0 0,13.571421 3.57143,0 0.71429,29.28572"
       id="path4309-1"
       inkscape:connector-curvature="0" />
    <path
       style="fill:none;stroke:#000000;stroke-width:1px;stroke-linecap:butt;stroke-linejoin:miter;stroke-opacity:1"
       d="m 73.71429,113.21932 -0.71428,-29.28571 -5,-0.71429 0,-14.285711 -7.85714,0 0,13.571421 -3.57143,0 -0.71429,29.28572"
       id="path4309-2-5"
       inkscape:connector-curvature="0" />
    <path
       style="fill:none;stroke:#000000;stroke-width:1px;stroke-linecap:butt;stroke-linejoin:miter;stroke-opacity:1"
       d="m 73.57143,113.36218 0.71428,-29.28571 5,-0.71429 0,-14.285711 7.85714,0 0,13.571421 3.57143,0 0.71429,29.28572"
       id="path4309-5-7"
       inkscape:connector-curvature="0" />
    <path
       style="fill:none;stroke:#000000;stroke-width:1px;stroke-linecap:butt;stroke-linejoin:miter;stroke-opacity:1"
       d="m 111.67858,113.43361 -0.71428,-29.28571 -5,-0.71429 0,-14.285711 -7.85714,0 0,13.571421 -3.57143,0 -0.71429,29.28572"
       id="path4309-7-5"
       inkscape:connector-curvature="0" />
    <path
       style="fill:none;stroke:#000000;stroke-width:1px;stroke-linecap:butt;stroke-linejoin:miter;stroke-opacity:1"
       d="m 113.32144,113.71932 0.71428,-29.28571 5,-0.71429 0,-14.285711 7.85714,0 0,13.571421 3.57142,0 0.71429,29.28572"
       id="path4309-2-6-8"
       inkscape:connector-curvature="0" />
    <path
       style="fill:none;stroke:#000000;stroke-width:1px;stroke-linecap:butt;stroke-linejoin:miter;stroke-opacity:1"
       d="m 148.89285,113.86218 -0.71428,-29.28571 -5,-0.71429 0,-14.285711 -7.85714,0 0,13.571421 -3.57143,0 -0.71429,29.28572"
       id="path4309-5-5-7"
       inkscape:connector-curvature="0" />
    <path
       style="fill:none;stroke:#000000;stroke-width:1px;stroke-linecap:butt;stroke-linejoin:miter;stroke-opacity:1"
       d="m 655.32142,215.57647 -122.71428,1.42857"
       id="path4307-1"
       inkscape:connector-curvature="0"
       sodipodi:nodetypes="cc" />
    <path
       style="fill:none;stroke:#000000;stroke-width:1px;stroke-linecap:butt;stroke-linejoin:miter;stroke-opacity:1"
       d="m 646.74999,215.57647 -0.71428,-29.28571 -5,-0.71429 0,-14.28571 -7.85714,0 0,13.57142 -3.57143,0 -0.71429,29.28572"
       id="path4309-75"
       inkscape:connector-curvature="0" />
    <path
       style="fill:none;stroke:#000000;stroke-width:1px;stroke-linecap:butt;stroke-linejoin:miter;stroke-opacity:1"
       d="m 609.39285,215.86218 0.71428,-29.28571 5,-0.71429 0,-14.28571 7.85714,0 0,13.57142 3.57143,0 0.71429,29.28572"
       id="path4309-2-3"
       inkscape:connector-curvature="0" />
    <path
       style="fill:none;stroke:#000000;stroke-width:1px;stroke-linecap:butt;stroke-linejoin:miter;stroke-opacity:1"
       d="m 609.53571,216.00504 -0.71428,-29.28571 -5,-0.71429 0,-14.28571 -7.85714,0 0,13.57142 -3.57143,0 -0.71429,29.28572"
       id="path4309-5-4"
       inkscape:connector-curvature="0" />
    <path
       style="fill:none;stroke:#000000;stroke-width:1px;stroke-linecap:butt;stroke-linejoin:miter;stroke-opacity:1"
       d="m 571.42856,216.07647 0.71428,-29.28571 5,-0.71429 0,-14.28571 7.85714,0 0,13.57142 3.57143,0 0.71429,29.28572"
       id="path4309-7-8"
       inkscape:connector-curvature="0" />
    <path
       style="fill:none;stroke:#000000;stroke-width:1px;stroke-linecap:butt;stroke-linejoin:miter;stroke-opacity:1"
       d="m 569.7857,216.36218 -0.71428,-29.28571 -5,-0.71429 0,-14.28571 -7.85714,0 0,13.57142 -3.57143,0 -0.71429,29.28572"
       id="path4309-2-6-59"
       inkscape:connector-curvature="0" />
    <path
       style="fill:none;stroke:#000000;stroke-width:1px;stroke-linecap:butt;stroke-linejoin:miter;stroke-opacity:1"
       d="m 534.21428,216.50504 0.71428,-29.28571 5,-0.71429 0,-14.28571 7.85714,0 0,13.57142 3.57143,0 0.71429,29.28572"
       id="path4309-5-5-44"
       inkscape:connector-curvature="0" />
    <path
       style="fill:none;stroke:#000000;stroke-width:1px;stroke-linecap:butt;stroke-linejoin:miter;stroke-opacity:1"
       d="m 655.24998,163.43361 -122.71427,1.42857"
       id="path4307-8-7"
       inkscape:connector-curvature="0"
       sodipodi:nodetypes="cc" />
    <path
       style="fill:none;stroke:#000000;stroke-width:1px;stroke-linecap:butt;stroke-linejoin:miter;stroke-opacity:1"
       d="m 646.67856,163.43361 -0.71428,-29.28571 -5,-0.71429 0,-14.28571 -7.85714,0 0,13.57142 -3.57143,0 -0.71429,29.28572"
       id="path4309-55-6"
       inkscape:connector-curvature="0" />
    <path
       style="fill:none;stroke:#000000;stroke-width:1px;stroke-linecap:butt;stroke-linejoin:miter;stroke-opacity:1"
       d="m 609.32142,163.71932 0.71428,-29.28571 5,-0.71429 0,-14.28571 7.85714,0 0,13.57142 3.57143,0 0.71429,29.28572"
       id="path4309-2-9-1"
       inkscape:connector-curvature="0" />
    <path
       style="fill:none;stroke:#000000;stroke-width:1px;stroke-linecap:butt;stroke-linejoin:miter;stroke-opacity:1"
       d="m 609.46428,163.86218 -0.71428,-29.28571 -5,-0.71429 0,-14.28571 -7.85714,0 0,13.57142 -3.57143,0 -0.71429,29.28572"
       id="path4309-5-3-7"
       inkscape:connector-curvature="0" />
    <path
       style="fill:none;stroke:#000000;stroke-width:1px;stroke-linecap:butt;stroke-linejoin:miter;stroke-opacity:1"
       d="m 571.35713,163.93361 0.71428,-29.28571 5,-0.71429 0,-14.28571 7.85714,0 0,13.57142 3.57143,0 0.71429,29.28572"
       id="path4309-7-4-3"
       inkscape:connector-curvature="0" />
    <path
       style="fill:none;stroke:#000000;stroke-width:1px;stroke-linecap:butt;stroke-linejoin:miter;stroke-opacity:1"
       d="m 569.71427,164.21932 -0.71428,-29.28571 -5,-0.71429 0,-14.28571 -7.85714,0 0,13.57142 -3.57143,0 -0.71429,29.28572"
       id="path4309-2-6-5-6"
       inkscape:connector-curvature="0" />
    <path
       style="fill:none;stroke:#000000;stroke-width:1px;stroke-linecap:butt;stroke-linejoin:miter;stroke-opacity:1"
       d="m 534.14285,164.36218 0.71428,-29.28571 5,-0.71429 0,-14.28571 7.85714,0 0,13.57142 3.57143,0 0.71429,29.28572"
       id="path4309-5-5-4-5"
       inkscape:connector-curvature="0" />
    <path
       style="fill:none;stroke:#000000;stroke-width:1px;stroke-linecap:butt;stroke-linejoin:miter;stroke-opacity:1"
       d="m 651.67856,110.57647 -122.71427,1.42857"
       id="path4307-9-0"
       inkscape:connector-curvature="0"
       sodipodi:nodetypes="cc" />
    <path
       style="fill:none;stroke:#000000;stroke-width:1px;stroke-linecap:butt;stroke-linejoin:miter;stroke-opacity:1"
       d="m 643.10713,110.57647 -0.71428,-29.285713 -5,-0.71429 0,-14.285711 -7.85714,0 0,13.571421 -3.57143,0 -0.71429,29.285723"
       id="path4309-1-3"
       inkscape:connector-curvature="0" />
    <path
       style="fill:none;stroke:#000000;stroke-width:1px;stroke-linecap:butt;stroke-linejoin:miter;stroke-opacity:1"
       d="m 605.74999,110.86218 0.71428,-29.285713 5,-0.71429 0,-14.285711 7.85714,0 0,13.571421 3.57143,0 0.71429,29.285723"
       id="path4309-2-5-4"
       inkscape:connector-curvature="0" />
    <path
       style="fill:none;stroke:#000000;stroke-width:1px;stroke-linecap:butt;stroke-linejoin:miter;stroke-opacity:1"
       d="m 605.89285,111.00504 -0.71428,-29.285713 -5,-0.71429 0,-14.285711 -7.85714,0 0,13.571421 -3.57143,0 -0.71429,29.285723"
       id="path4309-5-7-3"
       inkscape:connector-curvature="0" />
    <path
       style="fill:none;stroke:#000000;stroke-width:1px;stroke-linecap:butt;stroke-linejoin:miter;stroke-opacity:1"
       d="m 567.7857,111.07647 0.71428,-29.285713 5,-0.71429 0,-14.285711 7.85714,0 0,13.571421 3.57143,0 0.71429,29.285723"
       id="path4309-7-5-8"
       inkscape:connector-curvature="0" />
    <path
       style="fill:none;stroke:#000000;stroke-width:1px;stroke-linecap:butt;stroke-linejoin:miter;stroke-opacity:1"
       d="m 566.14284,111.36218 -0.71428,-29.285713 -5,-0.71429 0,-14.285711 -7.85714,0 0,13.571421 -3.57142,0 -0.71429,29.285723"
       id="path4309-2-6-8-1"
       inkscape:connector-curvature="0" />
    <path
       style="fill:none;stroke:#000000;stroke-width:1px;stroke-linecap:butt;stroke-linejoin:miter;stroke-opacity:1"
       d="m 530.57143,111.50504 0.71428,-29.285713 5,-0.71429 0,-14.285711 7.85714,0 0,13.571421 3.57143,0 0.71429,29.285723"
       id="path4309-5-5-7-0"
       inkscape:connector-curvature="0" />
    <rect
       style="fill:none;stroke:#000000;stroke-width:0.99001133;stroke-miterlimit:4;stroke-opacity:1;stroke-dasharray:none"
       id="rect4504"
       width="335.00998"
       height="105.00999"
       x="169.99501"
       y="93.928619" />
    <path
       sodipodi:type="arc"
       style="fill:#ffffff;stroke:#000000;stroke-width:3;stroke-miterlimit:4;stroke-opacity:1;stroke-dasharray:none"
       id="path4290"
       sodipodi:cx="327.5"
       sodipodi:cy="183.43361"
       sodipodi:rx="26.071428"
       sodipodi:ry="23.928572"
       d="m 353.57143,183.43361 a 26.071428,23.928572 0 1 1 -52.14286,0 26.071428,23.928572 0 1 1 52.14286,0 z" />
  </g>
</svg>
