<?xml version="1.0" encoding="UTF-8" standalone="no"?>
<!-- Created with Inkscape (http://www.inkscape.org/) -->

<svg
   xmlns:dc="http://purl.org/dc/elements/1.1/"
   xmlns:cc="http://creativecommons.org/ns#"
   xmlns:rdf="http://www.w3.org/1999/02/22-rdf-syntax-ns#"
   xmlns:svg="http://www.w3.org/2000/svg"
   xmlns="http://www.w3.org/2000/svg"
   xmlns:sodipodi="http://sodipodi.sourceforge.net/DTD/sodipodi-0.dtd"
   xmlns:inkscape="http://www.inkscape.org/namespaces/inkscape"
   width="744.09448819"
   height="1052.3622047"
   id="svg2"
   version="1.1"
   inkscape:version="0.48.4 r9939"
   sodipodi:docname="smith.svg"
   inkscape:export-filename="/home/kc/html/itc240/final/images/smith.png"
   inkscape:export-xdpi="90"
   inkscape:export-ydpi="90">
  <defs
     id="defs4" />
  <sodipodi:namedview
     id="base"
     pagecolor="#ffffff"
     bordercolor="#666666"
     borderopacity="1.0"
     inkscape:pageopacity="0.0"
     inkscape:pageshadow="2"
     inkscape:zoom="1.4"
     inkscape:cx="373.50634"
     inkscape:cy="831.49428"
     inkscape:document-units="px"
     inkscape:current-layer="layer1"
     showgrid="false"
     inkscape:window-width="1920"
     inkscape:window-height="1020"
     inkscape:window-x="-2"
     inkscape:window-y="-3"
     inkscape:window-maximized="1" />
  <metadata
     id="metadata7">
    <rdf:RDF>
      <cc:Work
         rdf:about="">
        <dc:format>image/svg+xml</dc:format>
        <dc:type
           rdf:resource="http://purl.org/dc/dcmitype/StillImage" />
        <dc:title></dc:title>
      </cc:Work>
    </rdf:RDF>
  </metadata>
  <g
     inkscape:label="Layer 1"
     inkscape:groupmode="layer"
     id="layer1">
    <path
       sodipodi:type="arc"
       style="fill:#ffffff;fill-opacity:1;stroke:#000000;stroke-width:2.5;stroke-miterlimit:4;stroke-opacity:1;stroke-dasharray:none"
       id="path3757"
       sodipodi:cx="391.42856"
       sodipodi:cy="70.576469"
       sodipodi:rx="27.857143"
       sodipodi:ry="24.642857"
       d="m 419.2857,70.576469 a 27.857143,24.642857 0 1 1 -55.71429,0 27.857143,24.642857 0 1 1 55.71429,0 z"
       transform="translate(-10,90)" />
    <path
       style="fill:none;stroke:#000000;stroke-width:2.5;stroke-linecap:butt;stroke-linejoin:miter;stroke-miterlimit:4;stroke-opacity:1;stroke-dasharray:none"
       d="m 381.42857,183.79075 -0.71428,84.28572"
       id="path3759"
       inkscape:connector-curvature="0"
       sodipodi:nodetypes="cc" />
    <path
       style="fill:none;stroke:#000000;stroke-width:2.5;stroke-linecap:butt;stroke-linejoin:miter;stroke-opacity:1;stroke-miterlimit:4;stroke-dasharray:none"
       d="m 342.85714,261.64789 1.42857,-37.85713 15,-22.85715 41.42858,-0.71429 L 430,163.07647 440,122.36218"
       id="path3763"
       inkscape:connector-curvature="0"
       sodipodi:nodetypes="cccccc" />
    <path
       style="fill:none;stroke:#000000;stroke-width:1.38904941px;stroke-linecap:butt;stroke-linejoin:miter;stroke-opacity:1"
       d="m 132.82521,78.270992 199.69455,0"
       id="path3765"
       inkscape:connector-curvature="0" />
    <path
       style="fill:none;stroke:#000000;stroke-width:1.38904941px;stroke-linecap:butt;stroke-linejoin:miter;stroke-opacity:1"
       d="m 134.21196,101.69653 188.60043,0.70986 -38.8295,-11.357834 -30.5089,10.647974"
       id="path3767"
       inkscape:connector-curvature="0" />
    <path
       style="fill:none;stroke:#000000;stroke-width:1.38904941px;stroke-linecap:butt;stroke-linejoin:miter;stroke-opacity:1"
       d="m 130.05167,125.83193 187.21365,-2.12959 -88.75314,-11.35784 -4.16031,28.39459 z"
       id="path3769"
       inkscape:connector-curvature="0" />
    <path
       style="fill:none;stroke:#000000;stroke-width:1px;stroke-linecap:butt;stroke-linejoin:miter;stroke-opacity:1"
       d="m 353.57143,159.50504 c 2.85714,0 54.28571,-0.71429 54.28571,-0.71429"
       id="path3779"
       inkscape:connector-curvature="0" />
    <path
       style="fill:none;stroke:#000000;stroke-width:2;stroke-linecap:butt;stroke-linejoin:miter;stroke-opacity:1;stroke-miterlimit:4;stroke-dasharray:none"
       d="m 397.85714,138.07647 c 0,0 12.85715,-10.71429 12.85715,-19.28572 0,-8.57143 0,-8.57143 0,-8.57143 0,0 9.28571,18.57143 8.57142,25 -0.71428,6.42858 -10.71428,23.57143 -10.71428,23.57143"
       id="path3781"
       inkscape:connector-curvature="0" />
    <path
       style="fill:none;stroke:#000000;stroke-width:2;stroke-linecap:butt;stroke-linejoin:miter;stroke-miterlimit:4;stroke-opacity:1;stroke-dasharray:none"
       d="m 365.73388,138.79076 c 0,0 -12.85715,-10.71429 -12.85715,-19.28572 0,-8.57143 0,-8.57143 0,-8.57143 0,0 -9.28571,18.57143 -8.57142,25 0.71428,6.42858 10.71428,23.57143 10.71428,23.57143"
       id="path3781-1"
       inkscape:connector-curvature="0" />
    <path
       style="fill:none;stroke:#000000;stroke-width:1px;stroke-linecap:butt;stroke-linejoin:miter;stroke-opacity:1"
       d="m 469.28571,56.647896 5,13.571428 -10,-6.428571 12.14286,-2.142857 -15.71428,8.571428 z"
       id="path3857"
       inkscape:connector-curvature="0" />
    <path
       style="fill:none;stroke:#000000;stroke-width:1px;stroke-linecap:butt;stroke-linejoin:miter;stroke-opacity:1"
       d="m 419.28571,54.1479 5,13.57142 -10,-6.42857 12.14286,-2.14285 -15.71428,8.57142 z"
       id="path3857-6"
       inkscape:connector-curvature="0" />
    <path
       style="fill:none;stroke:#000000;stroke-width:1px;stroke-linecap:butt;stroke-linejoin:miter;stroke-opacity:1"
       d="m 431.42856,74.147896 5,13.571428 -10,-6.428571 12.14286,-2.142857 -15.71428,8.571428 z"
       id="path3857-4"
       inkscape:connector-curvature="0" />
    <path
       style="fill:none;stroke:#000000;stroke-width:1px;stroke-linecap:butt;stroke-linejoin:miter;stroke-opacity:1"
       d="m 444.64286,52.540748 5,13.57143 -10,-6.42857 12.14286,-2.14286 -15.71428,8.57143 z"
       id="path3857-0"
       inkscape:connector-curvature="0" />
    <path
       style="fill:none;stroke:#000000;stroke-width:1px;stroke-linecap:butt;stroke-linejoin:miter;stroke-opacity:1"
       d="m 456.07142,73.612177 5,13.57143 -10,-6.42857 12.14286,-2.14286 -15.71428,8.57143 z"
       id="path3857-4-4"
       inkscape:connector-curvature="0" />
    <path
       style="fill:none;stroke:#000000;stroke-width:2.5;stroke-linecap:butt;stroke-linejoin:miter;stroke-miterlimit:4;stroke-opacity:1;stroke-dasharray:none"
       d="M 450.03032,266.69546 497.26545,72.667747"
       id="path3765-1"
       inkscape:connector-curvature="0" />
    <path
       style="fill:none;stroke:#000000;stroke-width:2.5;stroke-linecap:butt;stroke-linejoin:miter;stroke-miterlimit:4;stroke-opacity:1;stroke-dasharray:none"
       d="M 487.79727,82.198207 485.74749,270.78883 474.95902,231.7973 486.05225,201.44747"
       id="path3767-4"
       inkscape:connector-curvature="0" />
    <path
       style="fill:none;stroke:#000000;stroke-width:2.5;stroke-linecap:butt;stroke-linejoin:miter;stroke-miterlimit:4;stroke-opacity:1;stroke-dasharray:none"
       d="M 517.46572,79.626947 503.89073,269.27594 496.53407,159.2506 z"
       id="path3941"
       inkscape:connector-curvature="0" />
    <path
       style="fill:none;stroke:#000000;stroke-width:2.5;stroke-linecap:butt;stroke-linejoin:miter;stroke-miterlimit:4;stroke-opacity:1;stroke-dasharray:none"
       d="M 533.32296,80.394833 519.74797,270.04383 512.39131,160.01849 z"
       id="path3941-6"
       inkscape:connector-curvature="0" />
    <path
       sodipodi:type="arc"
       style="fill:#ffffff;fill-opacity:1;stroke:#000000;stroke-width:5.1044178;stroke-miterlimit:4;stroke-opacity:1;stroke-dasharray:none"
       id="path3803-8"
       sodipodi:cx="526.07141"
       sodipodi:cy="80.219322"
       sodipodi:rx="35.357143"
       sodipodi:ry="29.285715"
       d="m 561.42855,80.219322 a 35.357143,29.285715 0 1 1 -70.71428,0 35.357143,29.285715 0 1 1 70.71428,0 z"
       transform="matrix(0.23376727,0,0,1.0261336,341.30744,157.18931)" />
    <path
       sodipodi:type="arc"
       style="fill:#ffffff;fill-opacity:1;stroke:#000000;stroke-width:2.5;stroke-miterlimit:4;stroke-opacity:1;stroke-dasharray:none"
       id="path4006"
       sodipodi:cx="243.21428"
       sodipodi:cy="197.00504"
       sodipodi:rx="36.785713"
       sodipodi:ry="32.5"
       d="m 279.99999,197.00504 a 36.785713,32.5 0 1 1 -73.57142,0 36.785713,32.5 0 1 1 73.57142,0 z"
       transform="matrix(1.0477572,0,0,0.99910983,10.170474,-8.3960605)" />
    <path
       style="fill:none;stroke:#000000;stroke-width:2.5;stroke-linecap:butt;stroke-linejoin:miter;stroke-miterlimit:4;stroke-opacity:1;stroke-dasharray:none"
       d="m 164.28571,293.6479 38.57143,-25.71429 335.71429,2.85715 25.71429,26.42856 z"
       id="path3777"
       inkscape:connector-curvature="0"
       sodipodi:nodetypes="ccccc" />
  </g>
</svg>
